<svg viewBox="90 90 520 520" xmlns="http://www.w3.org/2000/svg">
  <!-- dark backdrop to match the Hackbox aesthetic / keep contrast in browser tabs -->
  <rect x="90" y="90" width="520" height="520" fill="#000000"/>

  <!-- grid markers -->
  <rect x="108" y="108" width="2" height="2" fill="#C3FFFD"/>
  <rect x="590" y="108" width="2" height="2" fill="#C3FFFD"/>
  <rect x="108" y="590" width="2" height="2" fill="#C3FFFD"/>
  <rect x="590" y="590" width="2" height="2" fill="#C3FFFD"/>
  <rect x="349" y="349" width="2" height="2" fill="#C3FFFD"/>

  <!-- Hackbox -->
  <rect x="110" y="110" width="480" height="480" fill="none" stroke="#C3FFFD" stroke-width="3"/>
  <rect x="111.5" y="111.5" width="192" height="48" fill="#C3FFFD"/>

  <!-- Gmail mark: exact paths, Edison cyan tones -->
  <g transform="translate(150 145.6) scale(0.78)" fill-rule="evenodd">
    <g fill-rule="nonzero">
      <path fill="#7DE6E2" d="M34.91 448.818h81.454V251L0 163.727V413.91c0 19.287 15.622 34.91 34.91 34.91z"/>
      <path fill="#7DE6E2" d="M395.636 448.818h81.455c19.287 0 34.909-15.622 34.909-34.909V163.727L395.636 251z"/>
      <path fill="#E0FFFE" d="M395.636 99.727V251L512 163.727v-46.545c0-43.142-49.25-67.782-83.782-41.891z"/>
    </g>
    <path fill="#C3FFFD" d="M116.364 251V99.727L256 204.455 395.636 99.727V251L256 355.727z"/>
    <path fill="#E0FFFE" fill-rule="nonzero" d="M0 117.182v46.545L116.364 251V99.727L83.782 75.291C49.25 49.4 0 74.04 0 117.18z"/>
  </g>
</svg>
